<?xml version="1.0" encoding="utf-8"?>
<!-- Generator: Adobe Illustrator 24.2.1, SVG Export Plug-In . SVG Version: 6.00 Build 0)  -->
<svg version="1.1" id="Calque_1" xmlns="http://www.w3.org/2000/svg" xmlns:xlink="http://www.w3.org/1999/xlink" x="0px" y="0px"
	 viewBox="0 0 454.12 195.09" style="enable-background:new 0 0 454.12 195.09;" xml:space="preserve">
<style type="text/css">
	.st0{fill:#FFFFFF;}
</style>
	<g>
	<g>
		<g>
			<path class="st0" d="M137.57,92.87c-3.58,0-6.37-0.71-8.38-2.14c-2.01-1.43-3.01-3.21-3.01-5.34c0-2.53,1.3-3.8,3.91-3.8
				c0.04,3.55,0.7,6.22,1.98,8.03c1.28,1.81,3.25,2.71,5.89,2.71c2.31,0,4.19-0.67,5.62-2.01c1.43-1.34,2.14-3.34,2.14-6.02
				c0-1.63-0.3-2.95-0.9-3.96c-0.6-1.01-1.56-1.93-2.88-2.74c-1.32-0.81-3.05-1.71-5.18-2.69c-1.12-0.54-2.27-1.13-3.44-1.76
				c-1.18-0.63-2.26-1.39-3.25-2.28c-1-0.89-1.79-1.96-2.39-3.23c-0.6-1.27-0.9-2.8-0.9-4.61c0-3.25,1.04-5.73,3.12-7.43
				c2.08-1.7,4.86-2.55,8.33-2.55c2.1,0,3.94,0.29,5.53,0.87c1.59,0.58,2.83,1.34,3.72,2.28c0.89,0.94,1.33,1.97,1.33,3.09
				c0,1.05-0.4,1.87-1.19,2.47c-0.8,0.6-1.83,0.9-3.09,0.9c0-3-0.49-5.26-1.46-6.78c-0.98-1.52-2.6-2.28-4.88-2.28
				c-2.1,0-3.77,0.63-5.02,1.9c-1.25,1.27-1.87,3.13-1.87,5.59c0,1.77,0.33,3.2,0.98,4.29s1.63,2.02,2.93,2.79
				c1.3,0.78,2.97,1.64,4.99,2.58c1.81,0.83,3.48,1.7,5.02,2.6c1.54,0.9,2.78,2.05,3.72,3.44c0.94,1.39,1.41,3.19,1.41,5.4
				c0,3.29-1.11,5.9-3.34,7.81C144.76,91.92,141.62,92.87,137.57,92.87z"/>
			<path class="st0" d="M164.75,92.87c-2.79,0-4.97-0.71-6.56-2.14c-1.59-1.43-2.39-3.39-2.39-5.89c0-2.78,1.02-4.86,3.07-6.24
				c2.04-1.37,5.14-2.13,9.3-2.28l4.5-0.16V72.1c0-2.03-0.11-3.69-0.33-4.99c-0.22-1.3-0.69-2.27-1.41-2.9
				c-0.72-0.63-1.83-0.95-3.31-0.95c-2.1,0-3.44,0.65-4.04,1.95c-0.6,1.3-0.9,3.35-0.9,6.13c-1.52,0-2.67-0.25-3.44-0.76
				c-0.78-0.51-1.17-1.34-1.17-2.5c0-1.3,0.44-2.34,1.33-3.12c0.89-0.78,2.06-1.35,3.53-1.71c1.46-0.36,3.1-0.54,4.91-0.54
				c3.33,0,5.81,0.71,7.46,2.12c1.65,1.41,2.47,3.83,2.47,7.27v16.22c0,1.3,0.25,2.21,0.76,2.71c0.51,0.51,1.37,0.76,2.6,0.76h0.16
				v0.54h-8.19v-5.7H173c-0.58,2.17-1.6,3.75-3.07,4.75C168.47,92.38,166.74,92.87,164.75,92.87z M165.84,92.11
				c1.34,0,2.52-0.34,3.55-1.03c1.03-0.69,1.84-1.61,2.41-2.77c0.58-1.16,0.87-2.4,0.87-3.74v-7.81l-3.47,0.16
				c-3.07,0.14-5.2,0.85-6.37,2.12c-1.18,1.27-1.76,3.4-1.76,6.4C161.06,89.89,162.65,92.11,165.84,92.11z"/>
			<path class="st0" d="M184.34,92.33v-0.54h0.71c1.59,0,2.73-0.33,3.42-0.98c0.69-0.65,1.03-1.72,1.03-3.2V55.87
				c0-1.52-0.34-2.6-1.03-3.26c-0.69-0.65-1.83-0.98-3.42-0.98h-0.71V51.1h10.25v36.24c0,1.59,0.34,2.73,1.03,3.42
				c0.69,0.69,1.83,1.03,3.42,1.03h0.71v0.54H184.34z"/>
			<path class="st0" d="M201.7,92.33v-0.54h0.71c1.59,0,2.73-0.33,3.42-0.98c0.69-0.65,1.03-1.72,1.03-3.2V68.03
				c0-1.52-0.34-2.6-1.03-3.26c-0.69-0.65-1.83-0.98-3.42-0.98h-0.16v-0.54h9.71v24.09c0,1.59,0.34,2.73,1.03,3.42
				c0.69,0.69,1.83,1.03,3.42,1.03h0.71v0.54H201.7z M209.13,58.04c-0.69,0-1.26-0.23-1.71-0.68c-0.45-0.45-0.68-1.24-0.68-2.36
				c0-1.16,0.23-1.95,0.68-2.39c0.45-0.43,1.02-0.65,1.71-0.65c0.65,0,1.21,0.22,1.68,0.65c0.47,0.43,0.71,1.23,0.71,2.39
				c0,1.12-0.24,1.91-0.71,2.36C210.34,57.82,209.78,58.04,209.13,58.04z"/>
			<path class="st0" d="M219.33,92.33v-0.54h0.43c1.66,0,2.82-0.36,3.47-1.09c0.65-0.72,0.98-2.02,0.98-3.91V68.68
				c0-1.84-0.31-3.12-0.92-3.82c-0.62-0.71-1.75-1.06-3.42-1.06h-0.27v-0.54h9.66v5.1h0.11c0.47-1.66,1.17-2.9,2.09-3.72
				c0.92-0.81,1.92-1.34,2.98-1.57c1.07-0.23,2.05-0.35,2.96-0.35c3.22,0,5.62,0.84,7.19,2.52c1.57,1.68,2.36,4.39,2.36,8.11V86.8
				c0,1.88,0.29,3.18,0.87,3.91c0.58,0.72,1.65,1.09,3.2,1.09h0.27v0.54h-9.44V71.5c0-2.35-0.44-4.27-1.33-5.75
				c-0.89-1.48-2.38-2.22-4.48-2.22c-1.7,0-3.04,0.45-4.01,1.36c-0.98,0.9-1.67,2.07-2.09,3.5c-0.42,1.43-0.62,2.92-0.62,4.48V86.8
				c0,1.88,0.31,3.18,0.92,3.91c0.61,0.72,1.75,1.09,3.42,1.09h0.27v0.54H219.33z"/>
			<path class="st0" d="M268.64,92.87c-4.05,0-7.21-1.3-9.47-3.91c-2.26-2.6-3.39-6.26-3.39-10.96c0-5.06,1.04-8.88,3.12-11.45
				c2.08-2.57,5.05-3.85,8.92-3.85c3.51,0,6.27,1.09,8.27,3.26c2.01,2.17,3.01,5.41,3.01,9.71v1.3h-18.07
				c0.04,5.53,0.64,9.48,1.82,11.83c1.17,2.35,3.16,3.53,5.94,3.53c2.03,0,3.73-0.56,5.13-1.68c1.39-1.12,2.29-2.78,2.69-4.99
				c0.43,0.07,0.76,0.29,0.98,0.65c0.22,0.36,0.33,0.74,0.33,1.14c0,0.72-0.34,1.51-1.03,2.36c-0.69,0.85-1.71,1.57-3.07,2.17
				C272.46,92.57,270.74,92.87,268.64,92.87z M261.05,76.44h12.59c0-4.74-0.45-8.12-1.36-10.14c-0.9-2.02-2.42-3.04-4.56-3.04
				c-2.21,0-3.82,1.01-4.86,3.04C261.83,68.32,261.23,71.7,261.05,76.44z"/>
			<path class="st0" d="M295.28,92.33v-0.54h0.71c1.59,0,2.73-0.33,3.42-0.98c0.69-0.65,1.03-1.72,1.03-3.2V68.03
				c0-1.52-0.34-2.6-1.03-3.26c-0.69-0.65-1.83-0.98-3.42-0.98h-0.16v-0.54h9.66v5.42h0.11c0.25-0.94,0.63-1.86,1.14-2.77
				c0.51-0.9,1.27-1.66,2.28-2.28c1.01-0.61,2.4-0.92,4.18-0.92c1.77,0,3.15,0.35,4.12,1.06c0.98,0.71,1.46,1.69,1.46,2.96
				c0,1.09-0.39,1.99-1.17,2.71c-0.78,0.72-2.07,1.09-3.88,1.09c0-2.24-0.38-3.79-1.14-4.64c-0.76-0.85-1.61-1.27-2.55-1.27
				c-1.05,0-1.88,0.37-2.5,1.11c-0.62,0.74-1.07,1.7-1.36,2.88c-0.29,1.18-0.47,2.39-0.54,3.63c-0.07,1.25-0.11,2.4-0.11,3.44v11.66
				c0,1.59,0.34,2.73,1.03,3.42c0.69,0.69,1.83,1.03,3.42,1.03h0.71v0.54H295.28z"/>
			<path class="st0" d="M335.15,92.87c-3.91,0-6.98-1.25-9.22-3.74c-2.24-2.5-3.36-6.29-3.36-11.39c0-5.06,1.08-8.83,3.23-11.31
				c2.15-2.48,5.32-3.72,9.52-3.72c3.91,0,6.98,1.24,9.22,3.72c2.24,2.48,3.36,6.25,3.36,11.31c0,5.1-1.09,8.9-3.25,11.39
				C342.47,91.63,339.31,92.87,335.15,92.87z M335.26,92.33c2.64,0,4.53-1.12,5.67-3.36c1.14-2.24,1.71-5.99,1.71-11.23
				c0-5.21-0.57-8.92-1.71-11.15c-1.14-2.22-3.05-3.34-5.72-3.34c-2.68,0-4.58,1.11-5.7,3.34c-1.12,2.22-1.68,5.94-1.68,11.15
				c0,5.24,0.57,8.99,1.71,11.23C330.67,91.21,332.58,92.33,335.26,92.33z"/>
			<path class="st0" d="M351.86,105.35v-0.54c2.53,0,4.58-0.19,6.16-0.57c1.57-0.38,2.82-0.98,3.74-1.79
				c0.92-0.81,1.7-1.86,2.33-3.15c0.63-1.28,1.29-2.81,1.98-4.58l-11.88-27.94c-0.47-1.16-0.93-1.94-1.38-2.36
				c-0.45-0.42-1.02-0.62-1.71-0.62h-1.09v-0.54h13.02v0.54h-0.16c-1.01,0-1.82,0.15-2.41,0.46c-0.6,0.31-0.9,0.86-0.9,1.65
				c0,0.62,0.22,1.45,0.65,2.5l4.67,11.34c0.54,1.34,1.12,2.82,1.74,4.45c0.61,1.63,1.12,3.06,1.52,4.29
				c0.47-1.41,0.92-2.75,1.36-4.01c0.43-1.27,0.8-2.37,1.09-3.31l3.96-12.42c0.33-0.98,0.49-1.79,0.49-2.44
				c0-1.66-1.19-2.5-3.58-2.5h-2.28v-0.54h11.28v0.54h-0.43c-1.34,0-2.31,0.27-2.9,0.81c-0.6,0.54-1.19,1.68-1.76,3.42l-7.92,24.52
				c-0.83,2.6-1.65,4.74-2.44,6.4c-0.8,1.66-1.72,2.96-2.77,3.91c-1.05,0.94-2.36,1.59-3.93,1.95c-1.57,0.36-3.55,0.54-5.94,0.54
				H351.86z"/>
			<path class="st0" d="M392.11,92.87c-2.79,0-4.97-0.71-6.56-2.14c-1.59-1.43-2.39-3.39-2.39-5.89c0-2.78,1.02-4.86,3.07-6.24
				c2.04-1.37,5.14-2.13,9.3-2.28l4.5-0.16V72.1c0-2.03-0.11-3.69-0.33-4.99c-0.22-1.3-0.69-2.27-1.41-2.9
				c-0.72-0.63-1.83-0.95-3.31-0.95c-2.1,0-3.44,0.65-4.04,1.95c-0.6,1.3-0.9,3.35-0.9,6.13c-1.52,0-2.67-0.25-3.44-0.76
				c-0.78-0.51-1.17-1.34-1.17-2.5c0-1.3,0.44-2.34,1.33-3.12c0.89-0.78,2.06-1.35,3.53-1.71c1.46-0.36,3.1-0.54,4.91-0.54
				c3.33,0,5.81,0.71,7.46,2.12c1.65,1.41,2.47,3.83,2.47,7.27v16.22c0,1.3,0.25,2.21,0.76,2.71c0.51,0.51,1.37,0.76,2.6,0.76h0.16
				v0.54h-8.19v-5.7h-0.11c-0.58,2.17-1.6,3.75-3.07,4.75C395.83,92.38,394.1,92.87,392.11,92.87z M393.2,92.11
				c1.34,0,2.52-0.34,3.55-1.03c1.03-0.69,1.84-1.61,2.41-2.77c0.58-1.16,0.87-2.4,0.87-3.74v-7.81l-3.47,0.16
				c-3.07,0.14-5.2,0.85-6.37,2.12c-1.18,1.27-1.76,3.4-1.76,6.4C388.42,89.89,390.01,92.11,393.2,92.11z"/>
			<path class="st0" d="M411.7,92.33v-0.54h0.71c1.59,0,2.73-0.33,3.42-0.98c0.69-0.65,1.03-1.72,1.03-3.2V55.87
				c0-1.52-0.34-2.6-1.03-3.26c-0.69-0.65-1.83-0.98-3.42-0.98h-0.71V51.1h10.25v36.24c0,1.59,0.34,2.73,1.03,3.42
				c0.69,0.69,1.83,1.03,3.42,1.03h0.71v0.54H411.7z"/>
			<path class="st0" d="M443.65,92.87c-4.05,0-7.21-1.3-9.47-3.91c-2.26-2.6-3.39-6.26-3.39-10.96c0-5.06,1.04-8.88,3.12-11.45
				c2.08-2.57,5.05-3.85,8.92-3.85c3.51,0,6.27,1.09,8.27,3.26c2.01,2.17,3.01,5.41,3.01,9.71v1.3h-18.07
				c0.04,5.53,0.64,9.48,1.82,11.83c1.17,2.35,3.16,3.53,5.94,3.53c2.03,0,3.73-0.56,5.13-1.68c1.39-1.12,2.29-2.78,2.69-4.99
				c0.43,0.07,0.76,0.29,0.98,0.65c0.22,0.36,0.33,0.74,0.33,1.14c0,0.72-0.34,1.51-1.03,2.36c-0.69,0.85-1.71,1.57-3.07,2.17
				C447.47,92.57,445.75,92.87,443.65,92.87z M436.05,76.44h12.59c0-4.74-0.45-8.12-1.36-10.14c-0.9-2.02-2.42-3.04-4.56-3.04
				c-2.21,0-3.82,1.01-4.86,3.04C436.84,68.32,436.24,71.7,436.05,76.44z"/>
			<path class="st0" d="M137.68,112.5c3.11,0,5.43,0.8,6.94,2.39c1.52,1.59,2.28,4.11,2.28,7.54v19.42h-2.33l-0.6-4.88h-0.11
				c-0.98,1.63-2.17,2.94-3.58,3.93c-1.41,0.99-3.38,1.49-5.91,1.49c-2.57,0-4.61-0.69-6.13-2.06c-1.52-1.37-2.28-3.38-2.28-6.02
				c0-2.86,1.09-5.05,3.28-6.56c2.19-1.52,5.4-2.37,9.63-2.55l4.94-0.27v-2.01c0-2.86-0.52-4.87-1.57-6.05
				c-1.05-1.17-2.6-1.76-4.67-1.76c-1.37,0-2.71,0.19-4.01,0.57c-1.3,0.38-2.59,0.93-3.85,1.66l-1.03-2.5
				c1.3-0.69,2.71-1.25,4.23-1.68S136.02,112.5,137.68,112.5z M143.81,127.31l-4.5,0.22c-3.4,0.14-5.94,0.77-7.62,1.87
				c-1.68,1.1-2.52,2.76-2.52,4.96c0,1.77,0.52,3.12,1.55,4.04c1.03,0.92,2.45,1.38,4.26,1.38c2.78,0,4.95-0.85,6.51-2.55
				c1.55-1.7,2.33-4.09,2.33-7.16V127.31z"/>
			<path class="st0" d="M166.43,142.39c-3.98,0-7.05-1.29-9.22-3.88c-2.17-2.59-3.26-6.23-3.26-10.93c0-3.22,0.55-5.96,1.65-8.22
				c1.1-2.26,2.63-3.98,4.58-5.15c1.95-1.18,4.23-1.76,6.84-1.76c1.3,0,2.53,0.13,3.69,0.38c1.16,0.25,2.19,0.6,3.09,1.03
				l-0.87,2.71c-1.92-0.9-3.92-1.36-6.02-1.36c-3.15,0-5.56,1.1-7.24,3.31c-1.68,2.21-2.52,5.21-2.52,9.01
				c0,3.62,0.75,6.55,2.25,8.79c1.5,2.24,3.82,3.36,6.97,3.36c1.37,0,2.65-0.14,3.82-0.43c1.17-0.29,2.25-0.67,3.23-1.14v2.77
				c-0.87,0.47-1.88,0.84-3.04,1.11C169.24,142.26,167.92,142.39,166.43,142.39z"/>
			<path class="st0" d="M189.49,112.5c3.11,0,5.42,0.8,6.94,2.39c1.52,1.59,2.28,4.11,2.28,7.54v19.42h-2.33l-0.6-4.88h-0.11
				c-0.98,1.63-2.17,2.94-3.58,3.93c-1.41,0.99-3.38,1.49-5.91,1.49c-2.57,0-4.61-0.69-6.13-2.06c-1.52-1.37-2.28-3.38-2.28-6.02
				c0-2.86,1.09-5.05,3.28-6.56c2.19-1.52,5.4-2.37,9.63-2.55l4.94-0.27v-2.01c0-2.86-0.52-4.87-1.57-6.05
				c-1.05-1.17-2.6-1.76-4.67-1.76c-1.37,0-2.71,0.19-4.01,0.57c-1.3,0.38-2.59,0.93-3.85,1.66l-1.03-2.5
				c1.3-0.69,2.71-1.25,4.23-1.68C186.24,112.72,187.83,112.5,189.49,112.5z M195.62,127.31l-4.5,0.22
				c-3.4,0.14-5.94,0.77-7.62,1.87c-1.68,1.1-2.52,2.76-2.52,4.96c0,1.77,0.52,3.12,1.55,4.04c1.03,0.92,2.45,1.38,4.26,1.38
				c2.78,0,4.95-0.85,6.51-2.55c1.55-1.7,2.33-4.09,2.33-7.16V127.31z"/>
			<path class="st0" d="M217.05,142.39c-3.62,0-6.4-1.24-8.35-3.72c-1.95-2.48-2.93-6.12-2.93-10.93c0-4.99,1.02-8.79,3.07-11.39
				c2.04-2.6,4.87-3.91,8.49-3.91c2.24,0,4.07,0.52,5.48,1.57c1.41,1.05,2.48,2.37,3.2,3.96h0.22c-0.07-0.87-0.13-1.83-0.16-2.88
				c-0.04-1.05-0.05-1.97-0.05-2.77v-11.72h3.09v41.23h-2.5l-0.49-4.99H226c-0.72,1.52-1.8,2.82-3.23,3.91
				C221.34,141.85,219.44,142.39,217.05,142.39z M217.54,139.74c3.11,0,5.3-1.01,6.56-3.04c1.27-2.03,1.9-4.94,1.9-8.73v-0.54
				c0-3.98-0.64-7.03-1.93-9.14c-1.28-2.12-3.43-3.17-6.43-3.17c-2.82,0-4.97,1.09-6.46,3.28c-1.48,2.19-2.22,5.31-2.22,9.36
				c0,3.94,0.71,6.93,2.12,8.95C212.49,138.72,214.64,139.74,217.54,139.74z"/>
			<path class="st0" d="M248.24,112.45c2.31,0,4.27,0.57,5.86,1.71c1.59,1.14,2.78,2.7,3.58,4.69c0.8,1.99,1.19,4.27,1.19,6.84v2.17
				h-19.31c0.04,3.8,0.88,6.72,2.52,8.76c1.65,2.04,4.01,3.07,7.08,3.07c1.7,0,3.18-0.14,4.45-0.43c1.27-0.29,2.64-0.8,4.12-1.52
				v2.82c-1.34,0.65-2.68,1.12-4.01,1.41c-1.34,0.29-2.89,0.43-4.67,0.43c-4.09,0-7.22-1.32-9.41-3.96
				c-2.19-2.64-3.28-6.24-3.28-10.8c0-2.93,0.47-5.54,1.41-7.84c0.94-2.3,2.29-4.1,4.04-5.4
				C243.57,113.1,245.71,112.45,248.24,112.45z M248.24,115.05c-2.46,0-4.45,0.89-5.97,2.66c-1.52,1.77-2.41,4.29-2.66,7.54h16.06
				c-0.04-3.04-0.65-5.5-1.84-7.38C252.64,115.99,250.77,115.05,248.24,115.05z"/>
			<path class="st0" d="M294.68,112.45c2.71,0,4.82,0.81,6.32,2.44c1.5,1.63,2.25,4.2,2.25,7.7v19.26h-3.04v-19.1
				c0-2.6-0.53-4.52-1.6-5.75c-1.07-1.23-2.54-1.84-4.42-1.84c-2.57,0-4.54,0.81-5.91,2.41c-1.37,1.61-2.06,4.1-2.06,7.46v16.82
				h-3.04v-19.1c0-2.6-0.54-4.52-1.63-5.75c-1.09-1.23-2.57-1.84-4.45-1.84c-2.53,0-4.48,0.84-5.86,2.52
				c-1.37,1.68-2.06,4.28-2.06,7.78v16.38h-3.04v-28.86h2.44l0.49,4.56h0.22c0.69-1.41,1.72-2.61,3.09-3.61
				c1.37-0.99,3.11-1.49,5.21-1.49c1.99,0,3.66,0.45,5.02,1.36c1.36,0.9,2.32,2.26,2.9,4.07h0.22c0.79-1.74,1.96-3.07,3.5-4.01
				C290.77,112.92,292.58,112.45,294.68,112.45z"/>
			<path class="st0" d="M307.43,112.99h3.36l6.35,17.96c0.58,1.59,1.07,3.01,1.46,4.26c0.4,1.25,0.71,2.36,0.92,3.34h0.16
				c0.22-0.83,0.52-1.9,0.92-3.2c0.4-1.3,0.87-2.75,1.41-4.34l6.24-18.01h3.36l-12.21,34.02c-0.9,2.53-2.01,4.49-3.31,5.89
				c-1.3,1.39-3.04,2.09-5.21,2.09c-0.69,0-1.29-0.05-1.82-0.16c-0.52-0.11-1.02-0.24-1.49-0.38v-2.6c0.87,0.32,1.84,0.49,2.93,0.49
				c1.45,0,2.61-0.47,3.5-1.41c0.89-0.94,1.69-2.37,2.41-4.29l1.68-4.88L307.43,112.99z"/>
		</g>
	</g>
		<g>
		<path class="st0" d="M106.44,121.02c0-0.55-0.01-1.1-0.03-1.65V52.16H0v88.68v1.04c0,29.34,23.87,53.21,53.21,53.21
			c28.99,0,52.64-23.31,53.19-52.16h0.01v-1.04v-1.04v-18.78h0.03V121.02z M95.98,119.98c-0.56-23.1-19.51-41.73-42.75-41.73
			c-23.24,0-42.19,18.63-42.75,41.73H2.13C2.68,92.27,25.4,69.9,53.24,69.9c27.66,0,50.25,22.08,51.09,49.54v0.54H95.98z
			 M85.57,119.98h-0.02c-0.55-17.35-14.83-31.3-32.32-31.3c-17.48,0-31.76,13.95-32.32,31.3h-0.03h-8.33
			c0.56-21.95,18.59-39.64,40.67-39.64c22.09,0,40.12,17.69,40.67,39.64H85.57z M104.29,143.7c-0.01,0.22-0.01,0.45-0.03,0.67
			c-0.01,0.21-0.02,0.43-0.04,0.64c-0.01,0.22-0.03,0.44-0.04,0.66c-0.02,0.21-0.04,0.43-0.05,0.64c-0.02,0.21-0.04,0.43-0.06,0.64
			c-0.02,0.22-0.05,0.43-0.07,0.65c-0.02,0.21-0.05,0.42-0.07,0.62c-0.03,0.22-0.06,0.44-0.09,0.65c-0.03,0.2-0.06,0.41-0.09,0.61
			c-0.03,0.22-0.07,0.44-0.1,0.66c-0.03,0.2-0.06,0.4-0.1,0.6c-0.04,0.22-0.08,0.44-0.12,0.66c-0.04,0.2-0.07,0.39-0.11,0.59
			c-0.04,0.22-0.09,0.44-0.14,0.66c-0.04,0.19-0.08,0.38-0.12,0.57c-0.05,0.22-0.1,0.44-0.16,0.66c-0.05,0.19-0.09,0.37-0.14,0.56
			c-0.06,0.22-0.12,0.44-0.17,0.66c-0.05,0.18-0.1,0.37-0.15,0.55c-0.06,0.22-0.13,0.44-0.19,0.66c-0.05,0.18-0.11,0.36-0.16,0.54
			c-0.07,0.22-0.14,0.44-0.21,0.66c-0.06,0.18-0.11,0.35-0.17,0.52c-0.07,0.22-0.15,0.44-0.23,0.66c-0.06,0.17-0.12,0.34-0.18,0.52
			c-0.08,0.22-0.16,0.44-0.24,0.65c-0.06,0.17-0.13,0.34-0.19,0.51c-0.08,0.22-0.17,0.44-0.26,0.65c-0.07,0.17-0.13,0.33-0.2,0.5
			c-0.09,0.22-0.18,0.43-0.28,0.65c-0.07,0.16-0.14,0.32-0.21,0.49c-0.1,0.21-0.19,0.43-0.29,0.64c-0.07,0.16-0.15,0.32-0.22,0.48
			c-0.1,0.21-0.2,0.42-0.31,0.64c-0.08,0.16-0.16,0.31-0.23,0.47c-0.11,0.21-0.21,0.42-0.32,0.62c-0.08,0.16-0.16,0.31-0.25,0.47
			c-0.1,0.19-0.21,0.38-0.31,0.58l-40.88-23.6h47.21c0,0.05,0,0.09,0,0.14C104.31,143.28,104.3,143.49,104.29,143.7z M96.45,169.13
			c-0.13,0.2-0.25,0.4-0.38,0.59c-0.09,0.14-0.19,0.29-0.28,0.43c-0.13,0.2-0.26,0.39-0.4,0.59c-0.1,0.14-0.2,0.28-0.29,0.42
			c-0.14,0.19-0.27,0.38-0.41,0.58c-0.1,0.14-0.2,0.28-0.3,0.42c-0.14,0.19-0.28,0.38-0.42,0.57c-0.1,0.14-0.21,0.27-0.31,0.41
			c-0.14,0.19-0.29,0.37-0.43,0.55c-0.11,0.13-0.22,0.27-0.32,0.4c-0.15,0.18-0.3,0.36-0.45,0.54c-0.11,0.13-0.22,0.26-0.33,0.4
			c-0.15,0.18-0.3,0.36-0.46,0.53c-0.11,0.13-0.23,0.26-0.34,0.39c-0.16,0.17-0.31,0.35-0.47,0.52c-0.12,0.13-0.23,0.25-0.35,0.38
			c-0.16,0.17-0.32,0.34-0.48,0.51c-0.12,0.12-0.24,0.25-0.36,0.37c-0.16,0.17-0.33,0.33-0.49,0.5c-0.12,0.12-0.25,0.24-0.37,0.36
			c-0.17,0.16-0.33,0.32-0.5,0.48c-0.13,0.12-0.25,0.24-0.38,0.35c-0.17,0.16-0.34,0.31-0.51,0.47c-0.13,0.12-0.26,0.23-0.39,0.35
			c-0.17,0.15-0.35,0.31-0.52,0.46c-0.13,0.12-0.27,0.23-0.41,0.34c-0.18,0.15-0.35,0.29-0.53,0.44c-0.14,0.11-0.28,0.22-0.41,0.33
			c-0.18,0.14-0.36,0.29-0.54,0.43c-0.14,0.11-0.28,0.22-0.42,0.32c-0.18,0.14-0.36,0.28-0.55,0.41c-0.14,0.11-0.29,0.21-0.43,0.32
			c-0.18,0.13-0.37,0.27-0.56,0.4c-0.15,0.1-0.3,0.21-0.45,0.31c-0.19,0.13-0.37,0.26-0.56,0.38c-0.15,0.1-0.3,0.2-0.45,0.3
			c-0.19,0.12-0.38,0.25-0.57,0.37c-0.15,0.1-0.31,0.19-0.46,0.29c-0.15,0.09-0.3,0.19-0.45,0.28l-23.6-40.88l40.88,23.6
			c-0.07,0.12-0.14,0.23-0.21,0.35C96.63,168.83,96.54,168.98,96.45,169.13z M76.91,187.17c-0.2,0.1-0.39,0.21-0.59,0.31
			c-0.17,0.09-0.34,0.17-0.51,0.25c-0.2,0.1-0.4,0.2-0.6,0.29c-0.17,0.08-0.34,0.16-0.52,0.24c-0.2,0.09-0.4,0.19-0.6,0.28
			c-0.18,0.08-0.35,0.15-0.53,0.23c-0.2,0.09-0.4,0.18-0.6,0.26c-0.18,0.08-0.36,0.15-0.54,0.22c-0.2,0.08-0.4,0.17-0.61,0.25
			c-0.18,0.07-0.37,0.14-0.55,0.21c-0.2,0.08-0.41,0.15-0.61,0.23c-0.19,0.07-0.37,0.13-0.56,0.2c-0.2,0.07-0.41,0.14-0.61,0.21
			c-0.19,0.06-0.38,0.12-0.57,0.19c-0.2,0.07-0.41,0.13-0.61,0.2c-0.19,0.06-0.39,0.12-0.59,0.17c-0.2,0.06-0.41,0.12-0.61,0.18
			c-0.2,0.06-0.4,0.11-0.6,0.16c-0.2,0.06-0.41,0.11-0.62,0.17c-0.2,0.05-0.41,0.1-0.61,0.15c-0.2,0.05-0.41,0.1-0.61,0.15
			c-0.21,0.05-0.42,0.09-0.63,0.14c-0.2,0.04-0.41,0.09-0.61,0.13c-0.21,0.04-0.42,0.08-0.64,0.12c-0.2,0.04-0.4,0.08-0.61,0.12
			c-0.22,0.04-0.43,0.07-0.65,0.11c-0.2,0.03-0.4,0.07-0.61,0.1c-0.22,0.03-0.44,0.06-0.67,0.09c-0.2,0.03-0.4,0.06-0.6,0.08
			c-0.23,0.03-0.46,0.05-0.69,0.08c-0.19,0.02-0.39,0.05-0.58,0.07c-0.24,0.02-0.49,0.04-0.73,0.07c-0.18,0.02-0.37,0.03-0.55,0.05
			c-0.26,0.02-0.51,0.03-0.77,0.05c-0.17,0.01-0.35,0.02-0.52,0.03c-0.27,0.01-0.55,0.02-0.82,0.03c-0.16,0.01-0.32,0.01-0.48,0.02
			c-0.09,0-0.18,0-0.26,0v-47.21l23.6,40.88c-0.15,0.08-0.3,0.17-0.45,0.25C77.24,187,77.07,187.08,76.91,187.17z M51.42,192.97
			c-0.27-0.01-0.55-0.02-0.82-0.03c-0.17-0.01-0.35-0.02-0.52-0.03c-0.26-0.02-0.52-0.03-0.77-0.05c-0.19-0.01-0.37-0.03-0.55-0.05
			c-0.24-0.02-0.49-0.04-0.73-0.07c-0.2-0.02-0.39-0.04-0.58-0.07c-0.23-0.03-0.46-0.05-0.69-0.08c-0.2-0.02-0.4-0.06-0.6-0.08
			c-0.22-0.03-0.45-0.06-0.67-0.09c-0.2-0.03-0.4-0.07-0.61-0.1c-0.22-0.04-0.43-0.07-0.65-0.11c-0.2-0.04-0.4-0.08-0.61-0.12
			c-0.21-0.04-0.43-0.08-0.64-0.12c-0.2-0.04-0.41-0.09-0.61-0.13c-0.21-0.04-0.42-0.09-0.63-0.14c-0.2-0.05-0.41-0.1-0.61-0.15
			c-0.2-0.05-0.41-0.1-0.61-0.15c-0.21-0.05-0.41-0.11-0.62-0.17c-0.2-0.05-0.4-0.11-0.6-0.16c-0.21-0.06-0.41-0.12-0.61-0.18
			c-0.2-0.06-0.39-0.11-0.59-0.17c-0.21-0.06-0.41-0.13-0.61-0.2c-0.19-0.06-0.38-0.12-0.57-0.19c-0.21-0.07-0.41-0.14-0.61-0.21
			c-0.19-0.07-0.37-0.13-0.56-0.2c-0.2-0.07-0.41-0.15-0.61-0.23c-0.18-0.07-0.37-0.14-0.55-0.21c-0.2-0.08-0.4-0.16-0.61-0.25
			c-0.18-0.07-0.36-0.15-0.54-0.22c-0.2-0.08-0.4-0.17-0.6-0.26c-0.18-0.08-0.36-0.15-0.53-0.23c-0.2-0.09-0.4-0.18-0.6-0.28
			c-0.17-0.08-0.34-0.16-0.52-0.24c-0.2-0.1-0.4-0.19-0.6-0.29c-0.17-0.08-0.34-0.17-0.51-0.25c-0.2-0.1-0.39-0.2-0.59-0.31
			c-0.17-0.09-0.33-0.17-0.5-0.26c-0.15-0.08-0.3-0.16-0.45-0.25l23.6-40.88v47.21c-0.09,0-0.18,0-0.26,0
			C51.74,192.99,51.58,192.98,51.42,192.97z M25.84,185.05c-0.19-0.12-0.38-0.25-0.57-0.37c-0.15-0.1-0.3-0.2-0.45-0.3
			c-0.19-0.13-0.37-0.25-0.56-0.38c-0.15-0.1-0.3-0.2-0.45-0.31c-0.19-0.13-0.37-0.27-0.56-0.4c-0.14-0.1-0.29-0.21-0.43-0.32
			c-0.18-0.14-0.37-0.28-0.55-0.41c-0.14-0.11-0.28-0.21-0.42-0.32c-0.18-0.14-0.36-0.28-0.54-0.43c-0.14-0.11-0.28-0.22-0.41-0.33
			c-0.18-0.15-0.35-0.29-0.53-0.44c-0.14-0.11-0.27-0.23-0.41-0.34c-0.18-0.15-0.35-0.3-0.52-0.46c-0.13-0.12-0.26-0.23-0.39-0.35
			c-0.17-0.16-0.34-0.31-0.51-0.47c-0.13-0.12-0.25-0.24-0.38-0.35c-0.17-0.16-0.34-0.32-0.5-0.48c-0.12-0.12-0.25-0.24-0.37-0.36
			c-0.17-0.16-0.33-0.33-0.49-0.5c-0.12-0.12-0.24-0.25-0.36-0.37c-0.16-0.17-0.32-0.34-0.48-0.51c-0.12-0.13-0.24-0.25-0.35-0.38
			c-0.16-0.17-0.31-0.34-0.47-0.52c-0.12-0.13-0.23-0.26-0.34-0.39c-0.15-0.18-0.31-0.35-0.46-0.53c-0.11-0.13-0.22-0.26-0.33-0.4
			c-0.15-0.18-0.3-0.36-0.45-0.54c-0.11-0.13-0.22-0.27-0.32-0.4c-0.15-0.18-0.29-0.37-0.44-0.55c-0.1-0.14-0.21-0.27-0.31-0.41
			c-0.14-0.19-0.28-0.38-0.42-0.57c-0.1-0.14-0.2-0.28-0.3-0.42c-0.14-0.19-0.27-0.38-0.41-0.58c-0.1-0.14-0.2-0.28-0.29-0.42
			c-0.13-0.19-0.27-0.39-0.4-0.59c-0.1-0.14-0.19-0.29-0.28-0.43c-0.13-0.2-0.26-0.4-0.38-0.59c-0.09-0.15-0.18-0.29-0.27-0.44
			c-0.07-0.12-0.14-0.23-0.21-0.35l40.88-23.6l-23.6,40.88c-0.15-0.09-0.3-0.18-0.45-0.28C26.15,185.24,25.99,185.14,25.84,185.05z
			 M7.87,165.49c-0.11-0.21-0.22-0.42-0.32-0.62c-0.08-0.16-0.16-0.31-0.23-0.47c-0.1-0.21-0.21-0.42-0.31-0.64
			c-0.08-0.16-0.15-0.32-0.22-0.48c-0.1-0.21-0.2-0.43-0.29-0.64c-0.07-0.16-0.14-0.33-0.21-0.49c-0.09-0.21-0.18-0.43-0.27-0.64
			c-0.07-0.17-0.14-0.33-0.2-0.5c-0.09-0.22-0.17-0.43-0.26-0.65c-0.07-0.17-0.13-0.34-0.19-0.51c-0.08-0.22-0.16-0.44-0.24-0.65
			c-0.06-0.17-0.12-0.34-0.18-0.52c-0.08-0.22-0.15-0.44-0.23-0.66c-0.06-0.17-0.11-0.35-0.17-0.52c-0.07-0.22-0.14-0.44-0.21-0.66
			c-0.05-0.18-0.11-0.36-0.16-0.54c-0.06-0.22-0.13-0.44-0.19-0.66c-0.05-0.18-0.1-0.36-0.15-0.55c-0.06-0.22-0.12-0.44-0.17-0.66
			c-0.05-0.19-0.09-0.37-0.14-0.56c-0.05-0.22-0.11-0.44-0.16-0.66c-0.04-0.19-0.08-0.38-0.12-0.57c-0.05-0.22-0.09-0.44-0.14-0.66
			c-0.04-0.19-0.08-0.39-0.11-0.59c-0.04-0.22-0.08-0.44-0.12-0.66c-0.03-0.2-0.07-0.4-0.1-0.6c-0.04-0.22-0.07-0.44-0.1-0.66
			c-0.03-0.2-0.06-0.41-0.09-0.61c-0.03-0.22-0.06-0.44-0.09-0.65c-0.03-0.21-0.05-0.42-0.07-0.62c-0.02-0.22-0.05-0.43-0.07-0.65
			c-0.02-0.21-0.04-0.43-0.06-0.64c-0.02-0.21-0.04-0.43-0.05-0.64c-0.02-0.22-0.03-0.44-0.04-0.66c-0.01-0.21-0.03-0.42-0.04-0.64
			c-0.01-0.22-0.02-0.45-0.03-0.67c-0.01-0.21-0.02-0.42-0.02-0.63c0-0.05,0-0.09,0-0.14h47.21l-40.88,23.6
			c-0.11-0.19-0.21-0.38-0.31-0.58C8.04,165.8,7.95,165.64,7.87,165.49z M20.89,122.06v18.78H2.11v-18.78h8.35H20.89z M31.33,122.06
			h10.43v18.78H22.98v-18.78H31.33z M83.46,122.06v18.78H64.71v-18.78h0h10.43H83.46z M62.62,122.06v18.78H43.84v-18.78H62.62z
			 M43.9,119.98c0.52-4.69,4.51-8.35,9.33-8.35c4.82,0,8.81,3.66,9.33,8.35H43.9z M64.71,119.98h-0.05
			c-0.53-5.84-5.45-10.43-11.43-10.43c-5.98,0-10.9,4.59-11.43,10.43h-0.05h-8.32c0.55-10.45,9.22-18.78,19.8-18.78
			c10.58,0,19.25,8.33,19.8,18.78H64.71z M83.46,119.98h-8.35c-0.55-11.6-10.15-20.87-21.88-20.87c-11.73,0-21.34,9.27-21.88,20.87
			H23c0.55-16.2,13.9-29.21,30.24-29.21C69.57,90.77,82.92,103.78,83.46,119.98L83.46,119.98z M104.33,54.25v51.91
			c-6.45-22.13-26.91-38.35-51.09-38.35c-24.25,0-44.76,16.31-51.15,38.53v-52.1H104.33z M104.33,140.84H85.57v-18.78h0h10.43h8.32
			V140.84z"/>
			<path class="st0" d="M21.94,28.17c3.45,0,6.26-2.81,6.26-6.26s-2.81-6.26-6.26-6.26s-6.26,2.81-6.26,6.26S18.49,28.17,21.94,28.17
			z M21.94,17.74c2.3,0,4.17,1.87,4.17,4.17c0,2.3-1.87,4.17-4.17,4.17c-2.3,0-4.17-1.87-4.17-4.17
			C17.76,19.61,19.64,17.74,21.94,17.74z"/>
			<path class="st0" d="M42.8,28.17c3.45,0,6.26-2.81,6.26-6.26s-2.81-6.26-6.26-6.26s-6.26,2.81-6.26,6.26S39.35,28.17,42.8,28.17z
			 M42.8,17.74c2.3,0,4.17,1.87,4.17,4.17c0,2.3-1.87,4.17-4.17,4.17c-2.3,0-4.17-1.87-4.17-4.17C38.63,19.61,40.5,17.74,42.8,17.74
			z"/>
			<path class="st0" d="M63.67,28.17c3.45,0,6.26-2.81,6.26-6.26s-2.81-6.26-6.26-6.26s-6.26,2.81-6.26,6.26S60.22,28.17,63.67,28.17
			z M63.67,17.74c2.3,0,4.17,1.87,4.17,4.17c0,2.3-1.87,4.17-4.17,4.17c-2.3,0-4.17-1.87-4.17-4.17
			C59.49,19.61,61.37,17.74,63.67,17.74z"/>
			<path class="st0" d="M84.53,28.17c3.45,0,6.26-2.81,6.26-6.26s-2.81-6.26-6.26-6.26s-6.26,2.81-6.26,6.26S81.08,28.17,84.53,28.17
			z M84.53,17.74c2.3,0,4.17,1.87,4.17,4.17c0,2.3-1.87,4.17-4.17,4.17c-2.3,0-4.17-1.87-4.17-4.17
			C80.36,19.61,82.23,17.74,84.53,17.74z"/>
			<path class="st0" d="M21.94,12.52c3.45,0,6.26-2.81,6.26-6.26S25.39,0,21.94,0s-6.26,2.81-6.26,6.26S18.49,12.52,21.94,12.52z
			 M21.94,2.09c2.3,0,4.17,1.87,4.17,4.17c0,2.3-1.87,4.17-4.17,4.17c-2.3,0-4.17-1.87-4.17-4.17C17.76,3.96,19.64,2.09,21.94,2.09z
			"/>
			<path class="st0" d="M42.8,12.52c3.45,0,6.26-2.81,6.26-6.26S46.25,0,42.8,0s-6.26,2.81-6.26,6.26S39.35,12.52,42.8,12.52z
			 M42.8,2.09c2.3,0,4.17,1.87,4.17,4.17c0,2.3-1.87,4.17-4.17,4.17c-2.3,0-4.17-1.87-4.17-4.17C38.63,3.96,40.5,2.09,42.8,2.09z"/>
			<path class="st0" d="M63.67,12.52c3.45,0,6.26-2.81,6.26-6.26S67.12,0,63.67,0s-6.26,2.81-6.26,6.26S60.22,12.52,63.67,12.52z
			 M63.67,2.09c2.3,0,4.17,1.87,4.17,4.17c0,2.3-1.87,4.17-4.17,4.17c-2.3,0-4.17-1.87-4.17-4.17C59.49,3.96,61.37,2.09,63.67,2.09z
			"/>
			<path class="st0" d="M84.53,12.52c3.45,0,6.26-2.81,6.26-6.26S87.99,0,84.53,0s-6.26,2.81-6.26,6.26S81.08,12.52,84.53,12.52z
			 M84.53,2.09c2.3,0,4.17,1.87,4.17,4.17c0,2.3-1.87,4.17-4.17,4.17c-2.3,0-4.17-1.87-4.17-4.17C80.36,3.96,82.23,2.09,84.53,2.09z
			"/>
			<path class="st0" d="M21.94,43.82c3.45,0,6.26-2.81,6.26-6.26c0-3.45-2.81-6.26-6.26-6.26s-6.26,2.81-6.26,6.26
			C15.68,41.01,18.49,43.82,21.94,43.82z M21.94,33.38c2.3,0,4.17,1.87,4.17,4.17c0,2.3-1.87,4.17-4.17,4.17
			c-2.3,0-4.17-1.87-4.17-4.17C17.76,35.26,19.64,33.38,21.94,33.38z"/>
			<path class="st0" d="M42.8,43.82c3.45,0,6.26-2.81,6.26-6.26c0-3.45-2.81-6.26-6.26-6.26s-6.26,2.81-6.26,6.26
			C36.54,41.01,39.35,43.82,42.8,43.82z M42.8,33.38c2.3,0,4.17,1.87,4.17,4.17c0,2.3-1.87,4.17-4.17,4.17
			c-2.3,0-4.17-1.87-4.17-4.17C38.63,35.26,40.5,33.38,42.8,33.38z"/>
			<path class="st0" d="M63.67,43.82c3.45,0,6.26-2.81,6.26-6.26c0-3.45-2.81-6.26-6.26-6.26s-6.26,2.81-6.26,6.26
			C57.41,41.01,60.22,43.82,63.67,43.82z M63.67,33.38c2.3,0,4.17,1.87,4.17,4.17c0,2.3-1.87,4.17-4.17,4.17
			c-2.3,0-4.17-1.87-4.17-4.17C59.49,35.26,61.37,33.38,63.67,33.38z"/>
			<path class="st0" d="M84.53,43.82c3.45,0,6.26-2.81,6.26-6.26c0-3.45-2.81-6.26-6.26-6.26s-6.26,2.81-6.26,6.26
			C78.27,41.01,81.08,43.82,84.53,43.82z M84.53,33.38c2.3,0,4.17,1.87,4.17,4.17c0,2.3-1.87,4.17-4.17,4.17
			c-2.3,0-4.17-1.87-4.17-4.17C80.36,35.26,82.23,33.38,84.53,33.38z"/>
	</g>
</g>
</svg>
