<svg width="42" height="39" viewBox="0 0 42 39" fill="none" xmlns="http://www.w3.org/2000/svg">
<path d="M19.5825 0.759925C20.4679 0.285263 21.5321 0.285264 22.4175 0.759926L37.604 8.90159C38.5784 9.42399 39.1865 10.44 39.1865 11.5456V27.4544C39.1865 28.56 38.5784 29.576 37.604 30.0984L22.4175 38.2401C21.5321 38.7147 20.4679 38.7147 19.5825 38.2401L4.39599 30.0984C3.42157 29.576 2.81347 28.56 2.81347 27.4544V11.5456C2.81347 10.44 3.42158 9.42399 4.39599 8.90159L19.5825 0.759925Z" fill="#F4CF74"/>
<path d="M12.952 25V15.2H16.578C17.362 15.2 18.0107 15.3307 18.524 15.592C19.0373 15.8533 19.42 16.2127 19.672 16.67C19.924 17.1273 20.05 17.6407 20.05 18.21C20.05 18.7513 19.9287 19.2507 19.686 19.708C19.4433 20.156 19.0653 20.52 18.552 20.8C18.0387 21.0707 17.3807 21.206 16.578 21.206H14.744V25H12.952ZM14.744 19.75H16.466C17.0913 19.75 17.5393 19.6147 17.81 19.344C18.09 19.064 18.23 18.686 18.23 18.21C18.23 17.7247 18.09 17.3467 17.81 17.076C17.5393 16.796 17.0913 16.656 16.466 16.656H14.744V19.75ZM20.5561 25L23.6221 20.044L20.5141 15.2H22.5721L24.7701 18.616L26.7861 15.2H28.8021L25.7361 20.128L28.8721 25H26.8141L24.5881 21.542L22.5721 25H20.5561Z" fill="white"/>
</svg>
