<svg width="24" height="26" viewBox="0 0 24 26" fill="none" xmlns="http://www.w3.org/2000/svg">
<path d="M7.62486 1.0138C7.75372 0.665555 8.24628 0.665555 8.37514 1.0138L10.0969 5.66678C10.1374 5.77627 10.2237 5.86259 10.3332 5.9031L14.9862 7.62486C15.3344 7.75372 15.3344 8.24628 14.9862 8.37514L10.3332 10.0969C10.2237 10.1374 10.1374 10.2237 10.0969 10.3332L8.37514 14.9862C8.24628 15.3344 7.75372 15.3344 7.62486 14.9862L5.9031 10.3332C5.86259 10.2237 5.77627 10.1374 5.66678 10.0969L1.0138 8.37514C0.665555 8.24628 0.665555 7.75372 1.0138 7.62486L5.66678 5.9031C5.77627 5.86259 5.86259 5.77627 5.9031 5.66678L7.62486 1.0138Z" fill="#F7DEA2"/>
<path d="M17.6249 15.0138C17.7537 14.6656 18.2463 14.6656 18.3751 15.0138L19.5567 18.207C19.5972 18.3164 19.6836 18.4028 19.793 18.4433L22.9862 19.6249C23.3344 19.7537 23.3344 20.2463 22.9862 20.3751L19.793 21.5567C19.6836 21.5972 19.5972 21.6836 19.5567 21.793L18.3751 24.9862C18.2463 25.3344 17.7537 25.3344 17.6249 24.9862L16.4433 21.793C16.4028 21.6836 16.3164 21.5972 16.207 21.5567L13.0138 20.3751C12.6656 20.2463 12.6656 19.7537 13.0138 19.6249L16.207 18.4433C16.3164 18.4028 16.4028 18.3164 16.4433 18.207L17.6249 15.0138Z" fill="#F7DEA2"/>
</svg>
